<svg xmlns="http://www.w3.org/2000/svg" viewBox="0 0 512 512">
  <rect width="512" height="512" rx="96" fill="#212529"/>
  <g fill="#f8f9fa">
    <path d="M256 96c-79.5 0-144 60.4-144 134.9 0 41.4 19.6 78.4 50.5 103.4v33.4c0 14.4 11.7 26.1 26.1 26.1h12.5v33.6c0 9.4 7.6 17 17 17h75.8c9.4 0 17-7.6 17-17v-33.6h12.5c14.4 0 26.1-11.7 26.1-26.1v-33.4C380.4 309.3 400 272.3 400 230.9 400 156.4 335.5 96 256 96zm-52 184c-14.4 0-26-11.6-26-26s11.6-26 26-26 26 11.6 26 26-11.6 26-26 26zm104 0c-14.4 0-26-11.6-26-26s11.6-26 26-26 26 11.6 26 26-11.6 26-26 26zm-100 65l-13-26h130l-13 26h-26l-13-19-13 19h-26l-13-19-13 19h-26z"/>
  </g>
</svg>
